<?xml version="1.0" encoding="utf-8"?>
<!-- Generator: Adobe Illustrator 27.0.0, SVG Export Plug-In . SVG Version: 6.00 Build 0)  -->
<svg version="1.1" id="Glyph" xmlns="http://www.w3.org/2000/svg" xmlns:xlink="http://www.w3.org/1999/xlink" x="0px" y="0px"
	 viewBox="0 0 48 48" enable-background="new 0 0 48 48" xml:space="preserve">
<g>
	<path d="M27.25,9c0-0.68945-0.56055-1.25-1.25-1.25h-1.25v2.5H26C26.68945,10.25,27.25,9.68945,27.25,9z"/>
	<path d="M20.25,9c0-0.68945-0.56055-1.25-1.25-1.25S17.75,8.31055,17.75,9v2.25h2.5V9z"/>
	<path d="M14,17.75h20c2.06787,0,3.75-1.68262,3.75-3.75V7c0-2.06738-1.68213-3.75-3.75-3.75H14c-2.06787,0-3.75,1.68262-3.75,3.75
		v7C10.25,16.06738,11.93213,17.75,14,17.75z M30.25,7c0-0.41406,0.33594-0.75,0.75-0.75S31.75,6.58594,31.75,7v7
		c0,0.41406-0.33594,0.75-0.75,0.75s-0.75-0.33594-0.75-0.75V7z M23.25,7c0-0.41406,0.33594-0.75,0.75-0.75h2
		c1.5166,0,2.75,1.2334,2.75,2.75s-1.2334,2.75-2.75,2.75h-1.25V14c0,0.41406-0.33594,0.75-0.75,0.75s-0.75-0.33594-0.75-0.75V7z
		 M16.25,9c0-1.5166,1.2334-2.75,2.75-2.75S21.75,7.4834,21.75,9v5c0,0.41406-0.33594,0.75-0.75,0.75s-0.75-0.33594-0.75-0.75v-1.25
		h-2.5V14c0,0.41406-0.33594,0.75-0.75,0.75s-0.75-0.33594-0.75-0.75V9z"/>
	<path d="M24,28.75c-3.19202,0-5.82831,2.40674-6.20056,5.5h12.40112C29.82831,31.15674,27.19202,28.75,24,28.75z"/>
	<path d="M39.25,34.25V14c0,2.89001-2.34998,5.25-5.25,5.25H14c-2.90002,0-5.25-2.35999-5.25-5.25v20.25h1.5v-0.58002
		c0-0.96002,0.71997-1.77997,1.67999-1.90997c1.40002-0.20001,2.10999-1.87,1.23999-3
		c-0.58997-0.77002-0.51001-1.86005,0.17004-2.54004l1.87994-1.88c0.66003-0.66998,1.80005-0.73999,2.54004-0.16998
		c1.08997,0.84003,2.81,0.12,3-1.23999c0.13-0.96002,0.95001-1.67999,1.90997-1.67999h2.66003
		c0.95996,0,1.77997,0.71997,1.90997,1.67999c0.19,1.37,1.90002,2.08002,3,1.23999c0.77002-0.59003,1.85999-0.51001,2.54004,0.16998
		l1.87994,1.88c0.68005,0.67999,0.76001,1.77002,0.18005,2.53003c-0.87006,1.13-0.18005,2.82001,1.22998,3.01001
		c0.96002,0.13,1.67999,0.94995,1.67999,1.90997V34.25H39.25z"/>
	<path d="M36.25,34.25v-0.58008c0-0.21387-0.16357-0.39746-0.38086-0.42676c-2.5285-0.34167-3.77045-3.36938-2.22363-5.40045
		c0.12646-0.16602,0.10742-0.40912-0.0459-0.56244l-1.87988-1.87988c-0.15625-0.15625-0.39453-0.1748-0.56396-0.04492
		c-2.00055,1.55243-5.05792,0.2688-5.39893-2.22363c-0.0293-0.21777-0.21289-0.38184-0.42676-0.38184h-2.66016
		c-0.21387,0-0.39746,0.16406-0.42676,0.38086c-0.33563,2.47675-3.41431,3.76312-5.4024,2.22162
		c-0.12842-0.09955-0.41351-0.0976-0.56097,0.04791l-1.87939,1.87988c-0.15625,0.15625-0.17529,0.39355-0.04541,0.56348
		c1.55481,2.00165,0.28552,5.06165-2.22369,5.39941c-0.21771,0.0293-0.38129,0.21289-0.38129,0.42676V34.25h4.53802
		c0.3786-3.92255,3.69171-7,7.71198-7s7.33337,3.07745,7.71198,7H36.25z"/>
	<path d="M16.75,38v1c0,0.69,0.56,1.25,1.25,1.25h12c0.69,0,1.25-0.56,1.25-1.25v-1c0-0.41003,0.34003-0.75,0.75-0.75h11.75V12
		c0-1.52002-1.22998-2.75-2.75-2.75h-1.75v3H40c0.40997,0,0.75,0.33997,0.75,0.75v22c0,0.40997-0.34003,0.75-0.75,0.75H8
		c-0.40997,0-0.75-0.34003-0.75-0.75V13c0-0.41003,0.34003-0.75,0.75-0.75h0.75v-3H7c-1.52002,0-2.75,1.22998-2.75,2.75v25.25H16
		C16.40997,37.25,16.75,37.58997,16.75,38z"/>
	<path d="M32.75,38.75V39c0,1.5166-1.2334,2.75-2.75,2.75H18c-1.5166,0-2.75-1.2334-2.75-2.75v-0.25h-14V40
		c0,2.61914,2.13086,4.75,4.75,4.75h36c2.61914,0,4.75-2.13086,4.75-4.75v-1.25H32.75z"/>
</g>
</svg>
