<?xml version="1.0" encoding="utf-8"?>
<!-- Generator: Adobe Illustrator 27.0.0, SVG Export Plug-In . SVG Version: 6.00 Build 0)  -->
<svg version="1.1" id="Glyph" xmlns="http://www.w3.org/2000/svg" xmlns:xlink="http://www.w3.org/1999/xlink" x="0px" y="0px"
	 viewBox="0 0 48 48" enable-background="new 0 0 48 48" xml:space="preserve">
<g>
	<path d="M32.46973,20.53027c0,0,2,2,2.0001,2.0001c0.29338,0.29326,0.76826,0.29207,1.06044-0.0001c0.00004-0.00004,2-2,2-2
		c0.29297-0.29297,0.29297-0.76758,0-1.06055s-0.76758-0.29297-1.06055,0L35.75,20.18945V16c0-0.41406-0.33594-0.75-0.75-0.75
		s-0.75,0.33594-0.75,0.75v4.18945l-0.71973-0.71973c-0.29297-0.29297-0.76758-0.29297-1.06055,0
		S32.17676,20.2373,32.46973,20.53027z"/>
	<path d="M12.46991,22.53046c0.29445,0.29424,0.76818,0.29199,1.06036-0.00019l2-2c0.29297-0.29297,0.29297-0.76758,0-1.06055
		s-0.76758-0.29297-1.06055,0L13.75,20.18945V16c0-0.41406-0.33594-0.75-0.75-0.75s-0.75,0.33594-0.75,0.75v4.18945
		l-0.71973-0.71973c-0.29297-0.29297-0.76758-0.29297-1.06055,0s-0.29297,0.76758,0,1.06055
		C10.46973,20.53027,12.46973,22.53027,12.46991,22.53046z"/>
	<polygon points="19.75,44.32501 23.25,46.42499 23.25,40.42499 19.75,38.32501 	"/>
	<polygon points="12.56128,33.98822 9.01776,36.11438 14.00098,39.125 17.54578,36.99768 	"/>
	<path d="M24.75,33c0,0.17456-0.06915,0.328-0.16925,0.45544l3.66925,2.2157v-4.24829l-3.5-2.11353V33z"/>
	<path d="M19.75,31.42285v4.24829l3.66925-2.2157C23.31915,33.328,23.25,33.17456,23.25,33v-3.69067L19.75,31.42285z"/>
	<polygon points="13.25,32.65265 18.25,35.6712 18.25,31.42285 13.25,28.40405 	"/>
	<polygon points="24,34.85645 20.45428,36.99756 24,39.125 27.54572,36.99756 	"/>
	<polygon points="29.75,35.6712 34.75,32.65265 34.75,28.40405 29.75,31.42285 	"/>
	<polygon points="14.75,46.42499 18.25,44.32501 18.25,38.32501 14.75,40.42499 	"/>
	<path d="M23.25,26.67499l-3.86426-2.31854c-0.23633-0.14258-0.53516-0.14258-0.77148,0l-4.59802,2.75879L19,30.12402l4.25-2.56641
		V26.67499z"/>
	<path d="M8.25,43c0,0.26367,0.13867,0.50781,0.36426,0.64355L13.25,46.42499v-6.00226l-5-3.02063V43z"/>
	<path d="M34.75,40.42273v6.00226l4.63574-2.78143C39.61133,43.50781,39.75,43.26367,39.75,43v-5.5979L34.75,40.42273z"/>
	<polygon points="35.43872,33.98822 30.45422,36.99768 33.99902,39.125 38.98224,36.11438 	"/>
	<polygon points="29.75,44.32501 33.25,46.42499 33.25,40.42499 29.75,38.32501 	"/>
	<path d="M29.38574,24.35645c-0.23633-0.14258-0.53516-0.14258-0.77148,0L24.75,26.67499v0.88263L29,30.12402l4.98376-3.00879
		L29.38574,24.35645z"/>
	<polygon points="24.75,46.42499 28.25,44.32501 28.25,38.32501 24.75,40.42499 	"/>
	<circle cx="24" cy="10" r="2.25"/>
	<path d="M16.41992,10.87109c-0.83594,0.48291-1.12305,1.55518-0.64062,2.39062l1.28613,2.22656
		c0.2334,0.40479,0.61133,0.69434,1.0625,0.81543c0.45013,0.12103,0.92267,0.05957,1.32788-0.17468
		c0.65717-0.37994,1.50806,0.11902,1.50806,0.87097c0,0.96484,0.78516,1.75,1.75,1.75h2.57227
		c0.96472,0,1.74982-0.78497,1.75-1.74969c0.00012-0.76617,0.84625-1.25177,1.50781-0.8714
		c0.40527,0.23438,0.87793,0.2959,1.32812,0.1748c0.45117-0.12109,0.8291-0.41064,1.0625-0.81543l1.28613-2.22656
		c0.48242-0.83545,0.19531-1.90771-0.64069-2.39069c-0.66241-0.38287-0.65826-1.36163,0.00006-1.74213
		c0.83594-0.48291,1.12305-1.55518,0.64062-2.39062l-1.28613-2.22656c-0.2334-0.40479-0.61133-0.69434-1.0625-0.81543
		c-0.4502-0.12158-0.92279-0.05908-1.32806,0.17474C27.90594,4.23926,27.03613,3.78314,27.03613,3c0-0.96484-0.78516-1.75-1.75-1.75
		h-2.57227c-0.96472,0-1.74976,0.78491-1.75,1.74957c-0.00018,0.75702-0.85461,1.24805-1.50781,0.87152
		c-0.40527-0.23389-0.87793-0.29639-1.32812-0.1748c-0.45117,0.12109-0.8291,0.41064-1.0625,0.81543L15.7793,6.73828
		c-0.48236,0.83533-0.19537,1.90741,0.64026,2.39038C17.08331,9.51233,17.08087,10.48901,16.41992,10.87109z M24,6.25
		c2.06738,0,3.75,1.68213,3.75,3.75s-1.68262,3.75-3.75,3.75s-3.75-1.68213-3.75-3.75S21.93262,6.25,24,6.25z"/>
</g>
</svg>
