<?xml version="1.0" encoding="utf-8"?>
<!-- Generator: Adobe Illustrator 27.0.0, SVG Export Plug-In . SVG Version: 6.00 Build 0)  -->
<svg version="1.1" id="Glyph" xmlns="http://www.w3.org/2000/svg" xmlns:xlink="http://www.w3.org/1999/xlink" x="0px" y="0px"
	 viewBox="0 0 48 48" enable-background="new 0 0 48 48" xml:space="preserve">
<g>
	<polygon points="24.75,30.43127 30.25,27.40625 30.25,21.4184 24.75,24.44348 	"/>
	<path d="M24,13.75c-5.65234,0-10.25,4.59814-10.25,10.25c0,5.65234,4.59766,10.25,10.25,10.25S34.25,29.65234,34.25,24
		C34.25,18.34814,29.65234,13.75,24,13.75z M31.75,20.1499v7.69971c0,0.27344-0.14844,0.52539-0.38867,0.65723l-7,3.85059
		c-0.22418,0.1236-0.49829,0.12286-0.7226,0c-0.00006,0-7.00006-3.85059-7.00006-3.85059
		C16.39844,28.375,16.25,28.12305,16.25,27.84961V20.1499c0-0.27344,0.14844-0.52539,0.38867-0.65723l7-3.8501
		c0.22461-0.12402,0.49805-0.12402,0.72266,0l7,3.8501C31.60156,19.62451,31.75,19.87646,31.75,20.1499z"/>
	<polygon points="18.55615,20.14984 20.44769,21.19025 25.75122,18.11896 24,17.15576 	"/>
	<path d="M24,10.75c-7.30566,0-13.25,5.94385-13.25,13.25c0,7.30566,5.94434,13.25,13.25,13.25S37.25,31.30566,37.25,24
		C37.25,16.69385,31.30566,10.75,24,10.75z M24,35.75c-6.47852,0-11.75-5.27148-11.75-11.75c0-6.479,5.27148-11.75,11.75-11.75
		S35.75,17.521,35.75,24C35.75,30.47852,30.47852,35.75,24,35.75z"/>
	<path d="M44.36328,19.0249c-2.74231-0.36682-4.12244-3.71301-2.44629-5.90674c0.83301-1.09033,0.73047-2.64453-0.24023-3.61475
		l-3.18066-3.18018c-0.96869-0.97015-2.52411-1.07422-3.61493-0.24048c-2.20172,1.6828-5.54138,0.28351-5.90656-2.44604
		C28.79297,2.27588,27.62109,1.25,26.24902,1.25h-4.49805c-1.37195,0-2.5437,1.02563-2.72552,2.38629
		c-0.36328,2.71851-3.7276,4.11639-5.90631,2.44672c-1.0918-0.8335-2.64453-0.73047-3.61523,0.24023L6.32324,9.50342
		C5.3526,10.47357,5.25,12.02771,6.08295,13.11853c1.64508,2.15454,0.3277,5.53729-2.44623,5.90637
		C2.27637,19.20654,1.25,20.37842,1.25,21.75098v4.49805c0,1.37195,1.02521,2.5437,2.38635,2.72552
		c2.76746,0.36963,4.13898,3.69232,2.44666,5.90729c-0.83398,1.08984-0.73047,2.64355,0.24023,3.61426l3.18066,3.18066
		c0.96967,0.97064,2.52319,1.07416,3.61401,0.24042c2.22534-1.70099,5.53827-0.315,5.90747,2.44708
		c0.18164,1.36035,1.35352,2.38574,2.72559,2.38574h4.49805c1.37195,0,2.54376-1.02527,2.72552-2.38641
		c0.36987-2.76971,3.68683-4.1427,5.90729-2.44659c1.09082,0.83398,2.64551,0.73047,3.61426-0.24023l3.18066-3.18066
		c0.97058-0.97058,1.07422-2.52405,0.24054-3.61389c-1.68213-2.19897-0.28156-5.54285,2.44696-5.90759
		c1.36035-0.18164,2.38574-1.35352,2.38574-2.72559v-4.49805C46.75,20.37854,45.72382,19.20673,44.36328,19.0249z M24,38.75
		c-8.13281,0-14.75-6.61719-14.75-14.75c0-8.1333,6.61719-14.75,14.75-14.75S38.75,15.8667,38.75,24
		C38.75,32.13281,32.13281,38.75,24,38.75z"/>
	<polygon points="24,23.14404 29.44385,20.14984 27.28632,18.96326 21.98279,22.03455 	"/>
	<polygon points="17.75,27.40625 23.25,30.43127 23.25,24.44348 17.75,21.4184 	"/>
</g>
</svg>
